<svg fill="none" xmlns="http://www.w3.org/2000/svg" viewBox="0 0 24 24" class="design-iconfont">
  <path d="M12 14.1374C8.13512 14.1374 4.98218 10.9845 4.98218 7.11955C4.98218 3.25465 8.13512 0 12 0C15.8649 0 19.0179 3.15295 19.0179 7.01785C19.0179 10.8827 15.8649 14.1374 12 14.1374ZM12 2.03416C9.25391 2.03416 7.01634 4.27173 7.01634 7.01785C7.01634 9.76396 9.25391 12.0015 12 12.0015C14.7461 12.0015 16.9837 9.76396 16.9837 7.01785C16.9837 4.27173 14.7461 2.03416 12 2.03416Z" fill="currentColor"/>
  <path d="M2.74462 23.8997C2.23608 23.8997 1.72754 23.4928 1.72754 22.8826C1.72754 22.6792 1.72754 22.5775 1.72754 22.4758C1.72754 16.7801 6.4061 12.1016 12.1017 12.1016C12.712 12.1016 13.1188 12.5084 13.1188 13.1186C13.1188 13.7289 12.712 14.1357 12.1017 14.1357C7.52489 14.1357 3.7617 17.8989 3.7617 22.4758V22.7809C3.7617 23.3911 3.25316 23.8997 2.74462 23.8997Z" fill="currentColor"/>
  <path d="M21.2553 23.798C20.6451 23.798 20.2382 23.3911 20.2382 22.7809V22.4758C20.2382 17.8989 16.475 14.1357 11.8982 14.1357C11.2879 14.1357 10.8811 13.7289 10.8811 13.1186C10.8811 12.5084 11.2879 12.1016 11.8982 12.1016C17.5938 12.1016 22.2724 16.7801 22.2724 22.4758C22.2724 22.5775 22.2724 22.6792 22.2724 22.7809C22.2724 23.3911 21.8656 23.798 21.2553 23.798Z" fill="currentColor"/>
</svg>
