<svg fill="none" xmlns="http://www.w3.org/2000/svg" viewBox="0 0 24 24" class="design-iconfont">
  <g clip-path="url(#34o9si0c0__clip0_225_787)">
    <path d="M18.2071 7.70327L21.2733 6.17698C21.6045 6.01207 21.9724 5.93449 22.342 5.95158C22.7116 5.96867 23.0707 6.07988 23.3853 6.27466C23.6998 6.46944 23.9594 6.74133 24.1395 7.06456C24.3195 7.3878 24.414 7.75166 24.414 8.12165V15.9827C24.414 16.3561 24.3177 16.7232 24.1345 17.0486C23.9512 17.374 23.6872 17.6466 23.3678 17.8402C23.0485 18.0338 22.6846 18.1418 22.3114 18.1538C21.9382 18.1658 21.5681 18.0814 21.237 17.9087L18.2071 16.3287V17.5862C18.2071 19.4715 16.6787 21 14.7933 21H3.00024C1.11489 21 -0.413574 19.4715 -0.413574 17.5862V6.41378C-0.413574 4.52844 1.11489 3 3.00024 3H14.7933C16.6787 3 18.2071 4.52844 18.2071 6.41378V7.70327ZM18.2071 9.78352V14.2283L22.0982 16.2573C22.1455 16.2819 22.1983 16.294 22.2516 16.2922C22.3049 16.2905 22.3569 16.2751 22.4025 16.2475C22.448 16.2198 22.4858 16.1809 22.5119 16.1345C22.5381 16.0881 22.5519 16.0357 22.552 15.9823V8.12162C22.552 8.06876 22.5385 8.01677 22.5127 7.97059C22.487 7.92441 22.4499 7.88557 22.405 7.85774C22.36 7.82992 22.3087 7.81404 22.2559 7.81161C22.2031 7.80918 22.1505 7.82028 22.1032 7.84385L18.2071 9.78352ZM16.3451 17.5862V6.41378C16.3451 6.21001 16.3049 6.00823 16.2269 5.81997C16.149 5.63171 16.0347 5.46065 15.8906 5.31656C15.7465 5.17247 15.5754 5.05817 15.3872 4.98019C15.1989 4.90221 14.9971 4.86207 14.7933 4.86207H3.00024C2.79646 4.86207 2.59468 4.9022 2.40641 4.98018C2.21815 5.05816 2.04709 5.17245 1.90299 5.31655C1.7589 5.46064 1.6446 5.6317 1.56661 5.81996C1.48863 6.00823 1.44849 6.21001 1.44849 6.41378V17.5862C1.44849 17.79 1.48863 17.9918 1.56661 18.18C1.6446 18.3683 1.7589 18.5393 1.90299 18.6834C2.04709 18.8275 2.21815 18.9418 2.40641 19.0198C2.59468 19.0978 2.79646 19.1379 3.00024 19.1379H14.7933C15.2049 19.1379 15.5996 18.9744 15.8906 18.6834C16.1816 18.3924 16.3451 17.9977 16.3451 17.5862ZM5.48299 10.7586C4.98914 10.7586 4.51551 10.5624 4.16631 10.2132C3.8171 9.86401 3.62092 9.39039 3.62092 8.89653C3.62092 8.40268 3.8171 7.92906 4.16631 7.57985C4.51551 7.23065 4.98914 7.03446 5.48299 7.03446C5.97684 7.03446 6.45046 7.23065 6.79967 7.57985C7.14888 7.92906 7.34506 8.40268 7.34506 8.89653C7.34506 9.39039 7.14888 9.86401 6.79967 10.2132C6.45046 10.5624 5.97684 10.7586 5.48299 10.7586Z" fill="currentColor"/>
  </g>
</svg>
