<svg fill="none" xmlns="http://www.w3.org/2000/svg" viewBox="0 0 24 24" class="design-iconfont">
  <g clip-path="url(#99zotsfwl__clip0_225_655)" fill="currentColor">
    <path d="M23.4659 1.11929C23.6647 1.51687 23.4659 2.00722 23.0286 2.21927L1.69159 12.742C1.25425 12.954 0.750641 12.8083 0.551849 12.4107C0.353057 12.0131 0.551849 11.5227 0.989191 11.3107L22.3262 0.787966C22.7635 0.589174 23.2672 0.734954 23.4659 1.11929Z"/>
    <path d="M22.9091 0.70825C23.3332 0.80102 23.6115 1.1721 23.532 1.51667L19.5826 18.8513C19.5031 19.2092 19.0923 19.408 18.6682 19.3152C18.2441 19.2224 17.9658 18.8513 18.0453 18.5068L21.9946 1.1721C22.0741 0.814272 22.485 0.61548 22.9091 0.70825Z"/>
    <path d="M22.7103 1.47933C23.0284 1.77089 23.0947 2.23474 22.8296 2.51305L10.2792 16.2164C10.0274 16.4948 9.55031 16.4815 9.23224 16.1899C8.91418 15.8984 8.84791 15.4345 9.11297 15.1562L21.6634 1.45282C21.9152 1.16126 22.379 1.17452 22.7103 1.47933ZM8.27804 15.0237C8.11901 15.4478 7.64191 15.6731 7.21782 15.514L0.988999 13.2611C0.564909 13.102 0.339612 12.6249 0.498645 12.2008C0.657679 11.7768 1.13478 11.5515 1.55887 11.7105L7.78769 13.9635C8.21178 14.1225 8.43708 14.5996 8.27804 15.0237ZM19.5429 18.973C19.3839 19.3971 18.9068 19.6224 18.4827 19.4634L12.2539 17.2104C11.8298 17.0514 11.6045 16.5743 11.7635 16.1502C11.9226 15.7261 12.3997 15.5008 12.8238 15.6598L19.0526 17.9128C19.4767 18.0718 19.702 18.5489 19.5429 18.973Z"/>
    <path d="M10.4383 22.4832C10.4383 22.9338 10.0672 23.3049 9.6166 23.3049C9.166 23.3049 8.79492 22.9338 8.79492 22.4832V15.8568C8.79492 15.4062 9.166 15.0352 9.6166 15.0352C10.0672 15.0352 10.4383 15.4062 10.4383 15.8568V22.4832Z"/>
    <path d="M13.1289 16.7982C13.4204 16.4403 13.9373 16.3873 14.2951 16.6656C14.6529 16.9572 14.706 17.4741 14.4277 17.8319L10.2928 23.0005C10.0012 23.3583 9.48435 23.4113 9.12653 23.133C8.7687 22.8414 8.71569 22.3246 8.994 21.9668L13.1289 16.7982Z"/>
  </g>
</svg>
