<svg fill="none" xmlns="http://www.w3.org/2000/svg" viewBox="0 0 24 24" class="design-iconfont">
  <path d="M20 19.9999C20.2652 19.9999 20.5196 20.1053 20.7071 20.2928C20.8946 20.4803 21 20.7347 21 20.9999C21 21.2651 20.8946 21.5195 20.7071 21.707C20.5196 21.8946 20.2652 21.9999 20 21.9999H4C3.73478 21.9999 3.48043 21.8946 3.29289 21.707C3.10536 21.5195 3 21.2651 3 20.9999C3 20.7347 3.10536 20.4803 3.29289 20.2928C3.48043 20.1053 3.73478 19.9999 4 19.9999H20ZM12 2.00391C12.2652 2.00391 12.5196 2.10926 12.7071 2.2968C12.8946 2.48434 13 2.73869 13 3.00391V15.0829L17.79 10.2929C17.9698 10.1132 18.2113 10.0087 18.4653 10.0007C18.7194 9.99269 18.967 10.0817 19.1577 10.2497C19.3485 10.4177 19.4682 10.652 19.4924 10.905C19.5166 11.1581 19.4435 11.4108 19.288 11.6119L19.204 11.7059L12.703 18.2109C12.5309 18.3832 12.3019 18.4868 12.0589 18.5023C11.8158 18.5178 11.5755 18.444 11.383 18.2949L11.289 18.2119L4.794 11.7279C4.61397 11.5483 4.50914 11.3068 4.50084 11.0526C4.49254 10.7985 4.58139 10.5507 4.74932 10.3597C4.91724 10.1687 5.15162 10.0489 5.40477 10.0246C5.65792 10.0003 5.91081 10.0733 6.112 10.2289L6.206 10.3119L11 15.0959V3.00391C11 2.73869 11.1054 2.48434 11.2929 2.2968C11.4804 2.10926 11.7348 2.00391 12 2.00391Z" fill="currentColor"/>
</svg>
